<?xml version="1.0" encoding="UTF-8" standalone="no"?>
<!DOCTYPE svg PUBLIC "-//W3C//DTD SVG 1.1//EN"
 "http://www.w3.org/Graphics/SVG/1.1/DTD/svg11.dtd">
<!-- Generated by graphviz version 2.43.0 (0)
 -->
<!-- Title: G Pages: 1 -->
<svg width="759pt" height="478pt"
 viewBox="0.00 0.00 759.00 478.00" xmlns="http://www.w3.org/2000/svg" xmlns:xlink="http://www.w3.org/1999/xlink">
<g id="graph0" class="graph" transform="scale(1 1) rotate(0) translate(4 474)">
<title>G</title>
<polygon fill="white" stroke="transparent" points="-4,4 -4,-474 755,-474 755,4 -4,4"/>
<text text-anchor="middle" x="375.5" y="-7.8" font-family="Helvetica,sans-Serif" font-size="14.00">Dependencies</text>
<g id="clust1" class="cluster">
<title>cluster_arba</title>
<polygon fill="none" stroke="black" points="8,-31 8,-462 569,-462 569,-31 8,-31"/>
<text text-anchor="middle" x="288.5" y="-446.8" font-family="Helvetica,sans-Serif" font-size="14.00">arba</text>
</g>
<g id="clust2" class="cluster">
<title>cluster_base</title>
<polygon fill="none" stroke="lightgrey" points="177,-39 177,-189 484,-189 484,-39 177,-39"/>
<text text-anchor="middle" x="330.5" y="-46.8" font-family="Helvetica,sans-Serif" font-size="14.00">base</text>
</g>
<g id="clust3" class="cluster">
<title>cluster_other</title>
<polygon fill="none" stroke="lightgrey" points="177,-209 177,-284 561,-284 561,-209 177,-209"/>
<text text-anchor="middle" x="369" y="-268.8" font-family="Helvetica,sans-Serif" font-size="14.00">utility</text>
</g>
<g id="clust4" class="cluster">
<title>cluster_tools</title>
<polygon fill="none" stroke="lightgrey" points="16,-209 16,-431 169,-431 169,-209 16,-209"/>
<text text-anchor="middle" x="92.5" y="-415.8" font-family="Helvetica,sans-Serif" font-size="14.00">application</text>
</g>
<g id="clust5" class="cluster">
<title>cluster_external</title>
<polygon fill="none" stroke="black" points="577,-114 577,-189 743,-189 743,-114 577,-114"/>
<text text-anchor="middle" x="660" y="-121.8" font-family="Helvetica,sans-Serif" font-size="14.00">external</text>
</g>
<!-- core -->
<g id="node1" class="node">
<title>core</title>
<defs>
<radialGradient id="r_0" cx="50%" cy="50%" r="75%" fx="50%" fy="50%">
<stop offset="0" style="stop-color:white;stop-opacity:1.;"/>
<stop offset="1" style="stop-color:lightgreen;stop-opacity:1.;"/>
</radialGradient>
</defs>
<ellipse fill="url(#r_0)" stroke="black" cx="369" cy="-88" rx="29.88" ry="18"/>
<text text-anchor="middle" x="369" y="-84.6" font-family="monospace" font-size="13.00">core</text>
</g>
<!-- strn -->
<g id="node2" class="node">
<title>strn</title>
<defs>
<radialGradient id="r_1" cx="50%" cy="50%" r="75%" fx="50%" fy="50%">
<stop offset="0" style="stop-color:white;stop-opacity:1.;"/>
<stop offset="1" style="stop-color:lightgreen;stop-opacity:1.;"/>
</radialGradient>
</defs>
<ellipse fill="url(#r_1)" stroke="black" cx="369" cy="-163" rx="29.88" ry="18"/>
<text text-anchor="middle" x="369" y="-159.6" font-family="monospace" font-size="13.00">strn</text>
</g>
<!-- math -->
<g id="node3" class="node">
<title>math</title>
<defs>
<radialGradient id="r_2" cx="50%" cy="50%" r="75%" fx="50%" fy="50%">
<stop offset="0" style="stop-color:white;stop-opacity:1.;"/>
<stop offset="1" style="stop-color:lightgreen;stop-opacity:1.;"/>
</radialGradient>
</defs>
<ellipse fill="url(#r_2)" stroke="black" cx="446" cy="-163" rx="29.88" ry="18"/>
<text text-anchor="middle" x="446" y="-159.6" font-family="monospace" font-size="13.00">math</text>
</g>
<!-- math&#45;&gt;core -->
<g id="edge8" class="edge">
<title>math&#45;&gt;core</title>
<path fill="none" stroke="black" d="M435.21,-145.75C428.18,-135.88 418.4,-123.41 408,-114 405.07,-111.34 401.82,-108.78 398.48,-106.38"/>
<polygon fill="black" stroke="black" points="400.41,-103.46 390.16,-100.78 396.5,-109.27 400.41,-103.46"/>
</g>
<!-- seri -->
<g id="node4" class="node">
<title>seri</title>
<defs>
<radialGradient id="r_3" cx="50%" cy="50%" r="75%" fx="50%" fy="50%">
<stop offset="0" style="stop-color:white;stop-opacity:1.;"/>
<stop offset="1" style="stop-color:lightgreen;stop-opacity:1.;"/>
</radialGradient>
</defs>
<ellipse fill="url(#r_3)" stroke="black" cx="292" cy="-163" rx="29.88" ry="18"/>
<text text-anchor="middle" x="292" y="-159.6" font-family="monospace" font-size="13.00">seri</text>
</g>
<!-- seri&#45;&gt;core -->
<g id="edge9" class="edge">
<title>seri&#45;&gt;core</title>
<path fill="none" stroke="black" d="M302.79,-145.75C309.82,-135.88 319.6,-123.41 330,-114 332.93,-111.34 336.18,-108.78 339.52,-106.38"/>
<polygon fill="black" stroke="black" points="341.5,-109.27 347.84,-100.78 337.59,-103.46 341.5,-109.27"/>
</g>
<!-- itru -->
<g id="node5" class="node">
<title>itru</title>
<defs>
<radialGradient id="r_4" cx="50%" cy="50%" r="75%" fx="50%" fy="50%">
<stop offset="0" style="stop-color:white;stop-opacity:1.;"/>
<stop offset="1" style="stop-color:lightgreen;stop-opacity:1.;"/>
</radialGradient>
</defs>
<ellipse fill="url(#r_4)" stroke="black" cx="215" cy="-163" rx="29.88" ry="18"/>
<text text-anchor="middle" x="215" y="-159.6" font-family="monospace" font-size="13.00">itru</text>
</g>
<!-- itru&#45;&gt;core -->
<g id="edge10" class="edge">
<title>itru&#45;&gt;core</title>
<path fill="none" stroke="black" d="M223.84,-145.75C230.48,-135.09 240.55,-121.75 253,-114 275.85,-99.78 305.6,-93.56 329.24,-90.88"/>
<polygon fill="black" stroke="black" points="329.68,-94.36 339.3,-89.91 329.01,-87.39 329.68,-94.36"/>
</g>
<!-- grid -->
<g id="node6" class="node">
<title>grid</title>
<defs>
<radialGradient id="r_5" cx="50%" cy="50%" r="75%" fx="50%" fy="50%">
<stop offset="0" style="stop-color:white;stop-opacity:1.;"/>
<stop offset="1" style="stop-color:lightgreen;stop-opacity:1.;"/>
</radialGradient>
</defs>
<ellipse fill="url(#r_5)" stroke="black" cx="446" cy="-235" rx="29.88" ry="18"/>
<text text-anchor="middle" x="446" y="-231.6" font-family="monospace" font-size="13.00">grid</text>
</g>
<!-- grid&#45;&gt;math -->
<g id="edge7" class="edge">
<title>grid&#45;&gt;math</title>
<path fill="none" stroke="black" d="M446,-216.7C446,-208.98 446,-199.71 446,-191.11"/>
<polygon fill="black" stroke="black" points="449.5,-191.1 446,-181.1 442.5,-191.1 449.5,-191.1"/>
</g>
<!-- cryp -->
<g id="node7" class="node">
<title>cryp</title>
<defs>
<radialGradient id="r_6" cx="50%" cy="50%" r="75%" fx="50%" fy="50%">
<stop offset="0" style="stop-color:white;stop-opacity:1.;"/>
<stop offset="1" style="stop-color:lightgreen;stop-opacity:1.;"/>
</radialGradient>
</defs>
<ellipse fill="url(#r_6)" stroke="black" cx="523" cy="-235" rx="29.88" ry="18"/>
<text text-anchor="middle" x="523" y="-231.6" font-family="monospace" font-size="13.00">cryp</text>
</g>
<!-- cryp&#45;&gt;core -->
<g id="edge11" class="edge">
<title>cryp&#45;&gt;core</title>
<path fill="none" stroke="black" d="M522.71,-216.86C521.29,-190.67 514.58,-140.91 485,-114 473.79,-103.8 437.14,-97.07 408,-93.18"/>
<polygon fill="black" stroke="black" points="408.42,-89.71 398.06,-91.93 407.54,-96.65 408.42,-89.71"/>
</g>
<!-- TBB -->
<g id="node16" class="node">
<title>TBB</title>
<defs>
<radialGradient id="r_7" cx="50%" cy="50%" r="75%" fx="50%" fy="50%">
<stop offset="0" style="stop-color:white;stop-opacity:1.;"/>
<stop offset="1" style="stop-color:lightgrey;stop-opacity:1.;"/>
</radialGradient>
</defs>
<ellipse fill="url(#r_7)" stroke="black" cx="612" cy="-163" rx="27" ry="18"/>
<text text-anchor="middle" x="612" y="-159.6" font-family="monospace" font-size="13.00">TBB</text>
</g>
<!-- cryp&#45;&gt;TBB -->
<g id="edge12" class="edge">
<title>cryp&#45;&gt;TBB</title>
<path fill="none" stroke="black" stroke-dasharray="5,2" d="M540.58,-220.17C553.8,-209.78 572.08,-195.4 586.84,-183.79"/>
<polygon fill="black" stroke="black" points="589.36,-186.26 595.06,-177.33 585.03,-180.76 589.36,-186.26"/>
</g>
<!-- wgen -->
<g id="node8" class="node">
<title>wgen</title>
<defs>
<radialGradient id="r_8" cx="50%" cy="50%" r="75%" fx="50%" fy="50%">
<stop offset="0" style="stop-color:white;stop-opacity:1.;"/>
<stop offset="1" style="stop-color:lightgreen;stop-opacity:1.;"/>
</radialGradient>
</defs>
<ellipse fill="url(#r_8)" stroke="black" cx="369" cy="-235" rx="29.88" ry="18"/>
<text text-anchor="middle" x="369" y="-231.6" font-family="monospace" font-size="13.00">wgen</text>
</g>
<!-- wgen&#45;&gt;strn -->
<g id="edge6" class="edge">
<title>wgen&#45;&gt;strn</title>
<path fill="none" stroke="black" d="M369,-216.7C369,-208.98 369,-199.71 369,-191.11"/>
<polygon fill="black" stroke="black" points="372.5,-191.1 369,-181.1 365.5,-191.1 372.5,-191.1"/>
</g>
<!-- dirn -->
<g id="node9" class="node">
<title>dirn</title>
<defs>
<radialGradient id="r_9" cx="50%" cy="50%" r="75%" fx="50%" fy="50%">
<stop offset="0" style="stop-color:white;stop-opacity:1.;"/>
<stop offset="1" style="stop-color:lightgreen;stop-opacity:1.;"/>
</radialGradient>
</defs>
<ellipse fill="url(#r_9)" stroke="black" cx="292" cy="-235" rx="29.88" ry="18"/>
<text text-anchor="middle" x="292" y="-231.6" font-family="monospace" font-size="13.00">dirn</text>
</g>
<!-- inis -->
<g id="node10" class="node">
<title>inis</title>
<defs>
<radialGradient id="r_10" cx="50%" cy="50%" r="75%" fx="50%" fy="50%">
<stop offset="0" style="stop-color:white;stop-opacity:1.;"/>
<stop offset="1" style="stop-color:lightgreen;stop-opacity:1.;"/>
</radialGradient>
</defs>
<ellipse fill="url(#r_10)" stroke="black" cx="215" cy="-235" rx="29.88" ry="18"/>
<text text-anchor="middle" x="215" y="-231.6" font-family="monospace" font-size="13.00">inis</text>
</g>
<!-- rsce -->
<g id="node11" class="node">
<title>rsce</title>
<defs>
<radialGradient id="r_11" cx="50%" cy="50%" r="75%" fx="50%" fy="50%">
<stop offset="0" style="stop-color:white;stop-opacity:1.;"/>
<stop offset="1" style="stop-color:lightgreen;stop-opacity:1.;"/>
</radialGradient>
</defs>
<ellipse fill="url(#r_11)" stroke="black" cx="54" cy="-310" rx="29.88" ry="18"/>
<text text-anchor="middle" x="54" y="-306.6" font-family="monospace" font-size="13.00">rsce</text>
</g>
<!-- vlfs -->
<g id="node13" class="node">
<title>vlfs</title>
<defs>
<radialGradient id="r_12" cx="50%" cy="50%" r="75%" fx="50%" fy="50%">
<stop offset="0" style="stop-color:white;stop-opacity:1.;"/>
<stop offset="1" style="stop-color:lightgreen;stop-opacity:1.;"/>
</radialGradient>
</defs>
<ellipse fill="url(#r_12)" stroke="black" cx="92" cy="-235" rx="29.88" ry="18"/>
<text text-anchor="middle" x="92" y="-231.6" font-family="monospace" font-size="13.00">vlfs</text>
</g>
<!-- rsce&#45;&gt;vlfs -->
<g id="edge4" class="edge">
<title>rsce&#45;&gt;vlfs</title>
<path fill="none" stroke="black" d="M62.62,-292.44C67.38,-283.29 73.4,-271.73 78.75,-261.46"/>
<polygon fill="black" stroke="black" points="81.9,-262.99 83.41,-252.5 75.69,-259.75 81.9,-262.99"/>
</g>
<!-- evnt -->
<g id="node12" class="node">
<title>evnt</title>
<defs>
<radialGradient id="r_13" cx="50%" cy="50%" r="75%" fx="50%" fy="50%">
<stop offset="0" style="stop-color:white;stop-opacity:1.;"/>
<stop offset="1" style="stop-color:lightgreen;stop-opacity:1.;"/>
</radialGradient>
</defs>
<ellipse fill="url(#r_13)" stroke="black" cx="131" cy="-310" rx="29.88" ry="18"/>
<text text-anchor="middle" x="131" y="-306.6" font-family="monospace" font-size="13.00">evnt</text>
</g>
<!-- vlfs&#45;&gt;strn -->
<g id="edge5" class="edge">
<title>vlfs&#45;&gt;strn</title>
<path fill="none" stroke="black" d="M116.88,-225.09C132.75,-219.72 153.87,-213.13 173,-209 242.19,-194.06 264.6,-213.53 331,-189 335.08,-187.49 339.17,-185.47 343.07,-183.23"/>
<polygon fill="black" stroke="black" points="345.16,-186.05 351.74,-177.75 341.42,-180.14 345.16,-186.05"/>
</g>
<!-- appt -->
<g id="node14" class="node">
<title>appt</title>
<defs>
<radialGradient id="r_14" cx="50%" cy="50%" r="75%" fx="50%" fy="50%">
<stop offset="0" style="stop-color:white;stop-opacity:1.;"/>
<stop offset="1" style="stop-color:lightgreen;stop-opacity:1.;"/>
</radialGradient>
</defs>
<ellipse fill="url(#r_14)" stroke="black" cx="131" cy="-382" rx="29.88" ry="18"/>
<text text-anchor="middle" x="131" y="-378.6" font-family="monospace" font-size="13.00">appt</text>
</g>
<!-- appt&#45;&gt;rsce -->
<g id="edge2" class="edge">
<title>appt&#45;&gt;rsce</title>
<path fill="none" stroke="black" d="M115.05,-366.5C104.21,-356.64 89.68,-343.44 77.52,-332.38"/>
<polygon fill="black" stroke="black" points="79.69,-329.62 69.93,-325.49 74.98,-334.8 79.69,-329.62"/>
</g>
<!-- appt&#45;&gt;evnt -->
<g id="edge1" class="edge">
<title>appt&#45;&gt;evnt</title>
<path fill="none" stroke="black" d="M131,-363.7C131,-355.98 131,-346.71 131,-338.11"/>
<polygon fill="black" stroke="black" points="134.5,-338.1 131,-328.1 127.5,-338.1 134.5,-338.1"/>
</g>
<!-- spdlog -->
<g id="node15" class="node">
<title>spdlog</title>
<defs>
<radialGradient id="r_15" cx="50%" cy="50%" r="75%" fx="50%" fy="50%">
<stop offset="0" style="stop-color:white;stop-opacity:1.;"/>
<stop offset="1" style="stop-color:lightgrey;stop-opacity:1.;"/>
</radialGradient>
</defs>
<ellipse fill="url(#r_15)" stroke="black" cx="696" cy="-163" rx="39.33" ry="18"/>
<text text-anchor="middle" x="696" y="-159.6" font-family="monospace" font-size="13.00">spdlog</text>
</g>
<!-- appt&#45;&gt;spdlog -->
<g id="edge3" class="edge">
<title>appt&#45;&gt;spdlog</title>
<path fill="none" stroke="black" d="M160.7,-379.6C233.62,-375.09 425.69,-356.66 565,-284 611.1,-259.96 653.28,-215.55 676.73,-188.02"/>
<polygon fill="black" stroke="black" points="679.65,-189.98 683.38,-180.06 674.28,-185.49 679.65,-189.98"/>
</g>
</g>
</svg>
